v -0.210284 -1.26956 -0.336565
vn -0.418069 -0.267353 0.868182
vt 0.0830997 0.673885
v -0.117043 0.00863814 -0.0302934
vn -0.32164 -0.150314 0.934855
vt 0.263171 0.0347871
v -0.100065 -1.92179 -0.569365
vn -0.0717267 -0.408304 0.910024
vt 0.295961 1
v 0.00839978 -1.00722 -0.150472
vn 0.0332017 -0.282757 0.958617
vt 0.505433 0.542715
v 0.0401722 0.0728467 -0.00435366
vn 0.213958 -0.137139 0.967168
vt 0.566794 0.00268278
v 0.195311 -1.84662 -0.589582
vn 0.305217 -0.387167 0.870025
vt 0.866406 0.962414
v 0.242307 -1.08683 -0.304804
vn 0.477875 -0.236149 0.846091
vt 0.957166 0.58252
f 3/3/3 4/4/4 1/1/1
f 6/6/6 4/4/4 3/3/3
f 7/7/7 4/4/4 6/6/6
f 5/5/5 4/4/4 7/7/7
f 4/4/4 2/2/2 1/1/1
f 4/4/4 5/5/5 2/2/2
